<svg width="21" height="17" viewBox="0 0 21 17" fill="none" xmlns="http://www.w3.org/2000/svg">
<path d="M0.75 15.3219C0.75 16.0271 1.32612 16.5983 2.03595 16.5983H2.05443C1.33373 16.5983 0.75 16.0271 0.75 15.3219Z" fill="#FBBC05"/>
<path d="M11.8006 5.43004V8.76241L16.2933 5.1386V1.92004C16.2933 1.21485 15.7172 0.643677 15.0073 0.643677L5.27408 0.643677L5.26538 5.43004L11.8006 5.43004Z" fill="#FBBC05"/>
<path d="M11.8009 12.0962H5.2548L5.24719 16.5986H15.0076C15.7185 16.5986 16.2936 16.0274 16.2936 15.3222V12.4163L11.8009 8.76381V12.0962Z" fill="#34A853"/>
<path d="M5.27421 0.643677L0.75 5.43004L5.2666 5.43004L5.27421 0.643677Z" fill="#EA4335"/>
<path d="M0.75 12.0959L0.75 15.3219C0.75 16.0271 1.33373 16.5983 2.05443 16.5983H5.24704L5.25465 12.0959H0.75Z" fill="#1967D2"/>
<path d="M5.2666 5.43004L0.75 5.43004L0.75 12.0958H5.25465L5.2666 5.43004Z" fill="#4285F4"/>
<path d="M20.2435 14.1873V3.23182C19.9902 1.77783 18.3955 3.44455 18.3955 3.44455L16.2943 5.13892V12.4153L19.3021 14.8606C20.3881 15.0031 20.2435 14.1873 20.2435 14.1873Z" fill="#34A853"/>
<path d="M11.8007 8.76241L16.2944 12.416V5.13966L11.8007 8.76241Z" fill="#188038"/>
</svg>
